# xmcd
#
# Track frame offsets:
#	150
#	15497
#	30137
#	45430
#	56897
#	75227
#	90985
#	105317
#	119252
#	137032
#	147445
#	162617
#	178570
#
# Disc length: 2746 seconds
#
# Revision: 1
# Processed by: cddbd v1.5.1PL2 Copyright (c) Steve Scherf et al.
# Submitted via: EasyCDDAExtractor 7.1.0.1
#
DISCID=960ab80d
DTITLE=Frank Sinatra - Sinatra Duets
DYEAR=1993
DGENRE=Blues
TTITLE0=The Lady Is A Tramp (Duet With Luther Vandross)
TTITLE1=What Now, My Love? (Duet With Aretha Franklin)
TTITLE2=I've Got A Crush On You (Duet With Barbra Streisand)
TTITLE3=Summer Wind (Duet With Julio Iglesias)
TTITLE4=Come Rain Or Come Shine (Duet With Gloria Estefan)
TTITLE5=New York, New York (Duet With Tony Bennett)
TTITLE6=They Can't Take That Away From Me (Duet With Natalie Cole)
TTITLE7=You Make Me Feel So Young (Duet With Charles Aznavour)
TTITLE8=Guess I'll Hang My Tears Out To Dry_In The Wee Small Hours Of The Morn
TTITLE8=ing (Duet With Carly Simon)
TTITLE9=I've Got The World On A String (Duet With Liza Minnelli)
TTITLE10=Witchcraft (Duet With Anita Baker)
TTITLE11=I've Got You Under My Skin (Duet With Bono)
TTITLE12=All The Way_One For My Baby (And One More For The Road) (Duet With Ke
TTITLE12=nny G)
EXTD=
EXTT0=
EXTT1=
EXTT2=
EXTT3=
EXTT4=
EXTT5=
EXTT6=
EXTT7=
EXTT8=
EXTT9=
EXTT10=
EXTT11=
EXTT12=
PLAYORDER=
